<?xml version="1.0" encoding="UTF-8" standalone="no"?>
<!-- Created with Inkscape (http://www.inkscape.org/) -->

<svg
   width="210mm"
   height="297mm"
   viewBox="0 0 210 297"
   version="1.1"
   id="svg5"
   inkscape:version="1.1.2 (b8e25be8, 2022-02-05)"
   sodipodi:docname="desenho.svg"
   xmlns:inkscape="http://www.inkscape.org/namespaces/inkscape"
   xmlns:sodipodi="http://sodipodi.sourceforge.net/DTD/sodipodi-0.dtd"
   xmlns="http://www.w3.org/2000/svg"
   xmlns:svg="http://www.w3.org/2000/svg">
  <sodipodi:namedview
     id="namedview7"
     pagecolor="#ffffff"
     bordercolor="#666666"
     borderopacity="1.0"
     inkscape:pageshadow="2"
     inkscape:pageopacity="0.0"
     inkscape:pagecheckerboard="0"
     inkscape:document-units="mm"
     showgrid="false"
     inkscape:zoom="0.30277647"
     inkscape:cx="-99.082998"
     inkscape:cy="454.13041"
     inkscape:window-width="1440"
     inkscape:window-height="803"
     inkscape:window-x="0"
     inkscape:window-y="25"
     inkscape:window-maximized="0"
     inkscape:current-layer="layer1" />
  <defs
     id="defs2">
    <linearGradient
       id="linearGradient3334"
       inkscape:swatch="solid">
      <stop
         style="stop-color:#000000;stop-opacity:1;"
         offset="0"
         id="stop3332" />
    </linearGradient>
  </defs>
  <g
     inkscape:label="Camada 1"
     inkscape:groupmode="layer"
     id="layer1">
    <g
       id="g3676"
       transform="matrix(2.4418907,0,0,2.4418907,-99.275067,-277.72508)">
      <path
         style="fill:#196b19;fill-opacity:1;stroke:none;stroke-width:0.264583px;stroke-linecap:butt;stroke-linejoin:miter;stroke-opacity:1"
         d="m 72.249378,155.29631 c -0.398068,-5.59784 4.384928,-12.2233 11.099988,-12.37805 5.330837,-0.12285 11.439022,4.17687 11.570888,11.13314 0.121862,6.4285 -5.462719,11.40159 -10.796877,11.60472 -5.692462,0.21678 -11.490524,-4.96718 -11.873999,-10.35981 z"
         id="path1192"
         sodipodi:nodetypes="sssss" />
      <path
         style="fill:#196b19;fill-opacity:1;stroke:none;stroke-width:0.264895px;stroke-linecap:butt;stroke-linejoin:miter;stroke-opacity:1"
         d="m 90.711302,169.76349 c -0.173984,-4.52473 3.783373,-9.44934 8.853486,-9.36261 4.459762,0.0763 8.325582,3.95499 8.587892,7.77273 0.35533,5.17149 -3.07504,9.6111 -7.87961,9.80424 -5.022942,0.20192 -9.381984,-3.5388 -9.561768,-8.21436 z"
         id="path1550"
         sodipodi:nodetypes="sssss" />
      <path
         style="fill:#196b19;fill-opacity:1;stroke:none;stroke-width:0.264583px;stroke-linecap:butt;stroke-linejoin:miter;stroke-opacity:1"
         d="m 81.968006,184.44673 c 0.08942,-3.49395 3.603068,-7.30439 7.842516,-7.08267 4.304491,0.22512 6.942313,3.35146 7.278521,6.70839 0.478445,4.77712 -3.114995,8.41111 -6.737095,8.53365 -5.313609,0.17977 -8.491399,-3.96042 -8.383942,-8.15937 z"
         id="path1931"
         sodipodi:nodetypes="sssss" />
      <path
         style="fill:#196b19;fill-opacity:1;stroke:none;stroke-width:0.264583px;stroke-linecap:butt;stroke-linejoin:miter;stroke-opacity:1"
         d="m 66.523073,184.86633 c -0.0099,-3.26691 2.914192,-6.1799 6.21122,-6.12121 3.637034,0.0648 6.023333,3.14545 6.121202,6.00119 0.111541,3.25468 -2.358683,6.34087 -5.851149,6.42126 -3.735334,0.086 -6.472178,-3.28809 -6.481273,-6.30124 z"
         id="path2137"
         sodipodi:nodetypes="sssss" />
      <path
         style="fill:#196b19;fill-opacity:1;stroke:none;stroke-width:0.264583px;stroke-linecap:butt;stroke-linejoin:miter;stroke-opacity:1"
         d="m 60.971981,173.28405 c -0.0016,-2.30314 1.867993,-4.26009 4.140815,-4.20082 2.490131,0.0649 3.901943,2.07273 3.990784,3.90076 0.09142,1.88114 -1.360654,3.99036 -3.840755,4.26084 -1.970423,0.21489 -4.28943,-1.97867 -4.290844,-3.96078 z"
         id="path2457"
         sodipodi:nodetypes="sssss" />
      <path
         style="fill:#e3328a;fill-opacity:1;stroke:none;stroke-width:0.264583px;stroke-linecap:butt;stroke-linejoin:miter;stroke-opacity:1"
         d="m 64.501511,162.12759 c -0.0305,-1.26388 1.046135,-2.679 2.651574,-2.71183 1.532358,-0.0313 2.619658,1.21969 2.611395,2.61139 -0.0083,1.39878 -0.870988,2.6471 -2.450695,2.71184 -1.779083,0.0729 -2.781413,-1.33252 -2.812274,-2.6114 z"
         id="path2777"
         sodipodi:nodetypes="sssss" />
    </g>
  </g>
</svg>
